<svg version="1.2" xmlns="http://www.w3.org/2000/svg" viewBox="0 0 756 521" width="756" height="521">
	<title>938-ai</title>
	<defs>
		<linearGradient id="g1" x2="1" gradientUnits="userSpaceOnUse" gradientTransform="matrix(0,-126.835,1.125,0,-6894.88,404.033)">
			<stop offset="0" stop-color="#020230"/>
			<stop offset="1" stop-color="#01c8ef"/>
		</linearGradient>
		<linearGradient id="g2" x2="1" gradientUnits="userSpaceOnUse" gradientTransform="matrix(0,-126.835,1.125,0,-6790.783,404.033)">
			<stop offset="0" stop-color="#020230"/>
			<stop offset="1" stop-color="#01c8ef"/>
		</linearGradient>
		<linearGradient id="g3" x2="1" gradientUnits="userSpaceOnUse" gradientTransform="matrix(0,-126.835,106.493,0,233.397,404.438)">
			<stop offset="0" stop-color="#020230"/>
			<stop offset="1" stop-color="#01c8ef"/>
		</linearGradient>
		<linearGradient id="g4" x2="1" gradientUnits="userSpaceOnUse" gradientTransform="matrix(89.587,0,0,51.877,237.767,233.792)">
			<stop offset="0" stop-color="#01c8ef"/>
			<stop offset="1" stop-color="#172f78"/>
		</linearGradient>
		<radialGradient id="g5" cx="0" cy="0" r="1" gradientUnits="userSpaceOnUse" gradientTransform="matrix(200.059,0,0,200.059,221.884,203.399)">
			<stop offset="0" stop-color="#01c8ef"/>
			<stop offset="1" stop-color="#172f78"/>
		</radialGradient>
		<linearGradient id="g6" x2="1" gradientUnits="userSpaceOnUse" gradientTransform="matrix(89.587,0,0,51.877,237.767,186.223)">
			<stop offset="0" stop-color="#01c8ef"/>
			<stop offset="1" stop-color="#172f78"/>
		</linearGradient>
		<radialGradient id="g7" cx="0" cy="0" r="1" gradientUnits="userSpaceOnUse" gradientTransform="matrix(200.059,0,0,200.059,221.884,155.829)">
			<stop offset="0" stop-color="#01c8ef"/>
			<stop offset="1" stop-color="#172f78"/>
		</radialGradient>
		<linearGradient id="g8" x2="1" gradientUnits="userSpaceOnUse" gradientTransform="matrix(89.587,0,0,51.877,237.767,138.653)">
			<stop offset="0" stop-color="#01c8ef"/>
			<stop offset="1" stop-color="#172f78"/>
		</linearGradient>
		<radialGradient id="g9" cx="0" cy="0" r="1" gradientUnits="userSpaceOnUse" gradientTransform="matrix(200.059,0,0,200.059,221.884,108.259)">
			<stop offset="0" stop-color="#01c8ef"/>
			<stop offset="1" stop-color="#172f78"/>
		</radialGradient>
		<radialGradient id="g10" cx="0" cy="0" r="1" gradientUnits="userSpaceOnUse" gradientTransform="matrix(137.548,0,0,137.548,239.538,120.315)">
			<stop offset="0" stop-color="#01c8ef"/>
			<stop offset="1" stop-color="#172f78"/>
		</radialGradient>
		<linearGradient id="g11" x2="1" gradientUnits="userSpaceOnUse" gradientTransform="matrix(89.587,0,0,51.877,237.767,91.979)">
			<stop offset="0" stop-color="#01c8ef"/>
			<stop offset="1" stop-color="#172f78"/>
		</linearGradient>
		<radialGradient id="g12" cx="0" cy="0" r="1" gradientUnits="userSpaceOnUse" gradientTransform="matrix(200.059,0,0,200.059,221.884,61.586)">
			<stop offset="0" stop-color="#01c8ef"/>
			<stop offset="1" stop-color="#172f78"/>
		</radialGradient>
		<linearGradient id="g13" x2="1" gradientUnits="userSpaceOnUse" gradientTransform="matrix(89.587,0,0,51.877,237.767,44.41)">
			<stop offset="0" stop-color="#01c8ef"/>
			<stop offset="1" stop-color="#172f78"/>
		</linearGradient>
		<radialGradient id="g14" cx="0" cy="0" r="1" gradientUnits="userSpaceOnUse" gradientTransform="matrix(200.059,0,0,200.059,221.884,14.016)">
			<stop offset="0" stop-color="#01c8ef"/>
			<stop offset="1" stop-color="#172f78"/>
		</radialGradient>
		<radialGradient id="g15" cx="0" cy="0" r="1" gradientUnits="userSpaceOnUse" gradientTransform="matrix(137.548,0,0,137.548,239.538,26.071)">
			<stop offset="0" stop-color="#01c8ef"/>
			<stop offset="1" stop-color="#172f78"/>
		</radialGradient>
		<linearGradient id="g16" x2="1" gradientUnits="userSpaceOnUse" gradientTransform="matrix(89.587,0,0,51.877,390.618,323.365)">
			<stop offset="0" stop-color="#01c8ef"/>
			<stop offset="1" stop-color="#172f78"/>
		</linearGradient>
		<radialGradient id="g17" cx="0" cy="0" r="1" gradientUnits="userSpaceOnUse" gradientTransform="matrix(200.059,0,0,200.059,374.735,292.971)">
			<stop offset="0" stop-color="#01c8ef"/>
			<stop offset="1" stop-color="#172f78"/>
		</radialGradient>
		<linearGradient id="g18" x2="1" gradientUnits="userSpaceOnUse" gradientTransform="matrix(89.587,0,0,51.877,390.618,275.795)">
			<stop offset="0" stop-color="#01c8ef"/>
			<stop offset="1" stop-color="#172f78"/>
		</linearGradient>
		<radialGradient id="g19" cx="0" cy="0" r="1" gradientUnits="userSpaceOnUse" gradientTransform="matrix(200.059,0,0,200.059,374.735,245.401)">
			<stop offset="0" stop-color="#01c8ef"/>
			<stop offset="1" stop-color="#172f78"/>
		</radialGradient>
		<linearGradient id="g20" x2="1" gradientUnits="userSpaceOnUse" gradientTransform="matrix(89.587,0,0,51.877,390.618,228.225)">
			<stop offset="0" stop-color="#01c8ef"/>
			<stop offset="1" stop-color="#172f78"/>
		</linearGradient>
		<radialGradient id="g21" cx="0" cy="0" r="1" gradientUnits="userSpaceOnUse" gradientTransform="matrix(200.059,0,0,200.059,374.735,197.832)">
			<stop offset="0" stop-color="#01c8ef"/>
			<stop offset="1" stop-color="#172f78"/>
		</radialGradient>
		<radialGradient id="g22" cx="0" cy="0" r="1" gradientUnits="userSpaceOnUse" gradientTransform="matrix(137.547,0,0,137.547,392.388,209.887)">
			<stop offset="0" stop-color="#01c8ef"/>
			<stop offset="1" stop-color="#172f78"/>
		</radialGradient>
		<linearGradient id="g23" x2="1" gradientUnits="userSpaceOnUse" gradientTransform="matrix(89.587,0,0,51.877,390.618,181.552)">
			<stop offset="0" stop-color="#01c8ef"/>
			<stop offset="1" stop-color="#172f78"/>
		</linearGradient>
		<radialGradient id="g24" cx="0" cy="0" r="1" gradientUnits="userSpaceOnUse" gradientTransform="matrix(200.059,0,0,200.059,374.735,151.158)">
			<stop offset="0" stop-color="#01c8ef"/>
			<stop offset="1" stop-color="#172f78"/>
		</radialGradient>
		<linearGradient id="g25" x2="1" gradientUnits="userSpaceOnUse" gradientTransform="matrix(89.587,0,0,51.877,390.618,133.982)">
			<stop offset="0" stop-color="#01c8ef"/>
			<stop offset="1" stop-color="#172f78"/>
		</linearGradient>
		<radialGradient id="g26" cx="0" cy="0" r="1" gradientUnits="userSpaceOnUse" gradientTransform="matrix(200.059,0,0,200.059,374.735,103.588)">
			<stop offset="0" stop-color="#01c8ef"/>
			<stop offset="1" stop-color="#172f78"/>
		</radialGradient>
		<radialGradient id="g27" cx="0" cy="0" r="1" gradientUnits="userSpaceOnUse" gradientTransform="matrix(137.547,0,0,137.547,392.388,115.643)">
			<stop offset="0" stop-color="#01c8ef"/>
			<stop offset="1" stop-color="#172f78"/>
		</radialGradient>
		<linearGradient id="g28" x2="1" gradientUnits="userSpaceOnUse" gradientTransform="matrix(89.587,0,0,51.877,237.899,416.585)">
			<stop offset="0" stop-color="#01c8ef"/>
			<stop offset="1" stop-color="#172f78"/>
		</linearGradient>
		<radialGradient id="g29" cx="0" cy="0" r="1" gradientUnits="userSpaceOnUse" gradientTransform="matrix(200.059,0,0,200.059,222.016,386.191)">
			<stop offset="0" stop-color="#01c8ef"/>
			<stop offset="1" stop-color="#172f78"/>
		</radialGradient>
		<linearGradient id="g30" x2="1" gradientUnits="userSpaceOnUse" gradientTransform="matrix(89.587,0,0,51.877,237.899,369.015)">
			<stop offset="0" stop-color="#01c8ef"/>
			<stop offset="1" stop-color="#172f78"/>
		</linearGradient>
		<radialGradient id="g31" cx="0" cy="0" r="1" gradientUnits="userSpaceOnUse" gradientTransform="matrix(200.059,0,0,200.059,222.016,338.621)">
			<stop offset="0" stop-color="#01c8ef"/>
			<stop offset="1" stop-color="#172f78"/>
		</radialGradient>
		<linearGradient id="g32" x2="1" gradientUnits="userSpaceOnUse" gradientTransform="matrix(89.587,0,0,51.877,237.899,321.446)">
			<stop offset="0" stop-color="#01c8ef"/>
			<stop offset="1" stop-color="#172f78"/>
		</linearGradient>
		<radialGradient id="g33" cx="0" cy="0" r="1" gradientUnits="userSpaceOnUse" gradientTransform="matrix(200.059,0,0,200.059,222.016,291.052)">
			<stop offset="0" stop-color="#01c8ef"/>
			<stop offset="1" stop-color="#172f78"/>
		</radialGradient>
		<radialGradient id="g34" cx="0" cy="0" r="1" gradientUnits="userSpaceOnUse" gradientTransform="matrix(137.547,0,0,137.547,239.669,303.107)">
			<stop offset="0" stop-color="#01c8ef"/>
			<stop offset="1" stop-color="#172f78"/>
		</radialGradient>
		<linearGradient id="g35" x2="1" gradientUnits="userSpaceOnUse" gradientTransform="matrix(89.587,0,0,51.877,237.899,274.772)">
			<stop offset="0" stop-color="#01c8ef"/>
			<stop offset="1" stop-color="#172f78"/>
		</linearGradient>
		<radialGradient id="g36" cx="0" cy="0" r="1" gradientUnits="userSpaceOnUse" gradientTransform="matrix(200.059,0,0,200.059,222.016,244.378)">
			<stop offset="0" stop-color="#01c8ef"/>
			<stop offset="1" stop-color="#172f78"/>
		</radialGradient>
		<linearGradient id="g37" x2="1" gradientUnits="userSpaceOnUse" gradientTransform="matrix(89.587,0,0,51.877,237.899,227.202)">
			<stop offset="0" stop-color="#01c8ef"/>
			<stop offset="1" stop-color="#172f78"/>
		</linearGradient>
		<radialGradient id="g38" cx="0" cy="0" r="1" gradientUnits="userSpaceOnUse" gradientTransform="matrix(200.059,0,0,200.059,222.016,196.808)">
			<stop offset="0" stop-color="#01c8ef"/>
			<stop offset="1" stop-color="#172f78"/>
		</radialGradient>
		<radialGradient id="g39" cx="0" cy="0" r="1" gradientUnits="userSpaceOnUse" gradientTransform="matrix(137.547,0,0,137.547,239.669,208.863)">
			<stop offset="0" stop-color="#01c8ef"/>
			<stop offset="1" stop-color="#172f78"/>
		</radialGradient>
		<linearGradient id="g40" x2="1" gradientUnits="userSpaceOnUse" gradientTransform="matrix(89.587,0,0,51.877,84.917,323.365)">
			<stop offset="0" stop-color="#01c8ef"/>
			<stop offset="1" stop-color="#172f78"/>
		</linearGradient>
		<radialGradient id="g41" cx="0" cy="0" r="1" gradientUnits="userSpaceOnUse" gradientTransform="matrix(200.059,0,0,200.059,69.034,292.971)">
			<stop offset="0" stop-color="#01c8ef"/>
			<stop offset="1" stop-color="#172f78"/>
		</radialGradient>
		<linearGradient id="g42" x2="1" gradientUnits="userSpaceOnUse" gradientTransform="matrix(89.587,0,0,51.877,84.917,275.795)">
			<stop offset="0" stop-color="#01c8ef"/>
			<stop offset="1" stop-color="#172f78"/>
		</linearGradient>
		<radialGradient id="g43" cx="0" cy="0" r="1" gradientUnits="userSpaceOnUse" gradientTransform="matrix(200.059,0,0,200.059,69.034,245.401)">
			<stop offset="0" stop-color="#01c8ef"/>
			<stop offset="1" stop-color="#172f78"/>
		</radialGradient>
		<linearGradient id="g44" x2="1" gradientUnits="userSpaceOnUse" gradientTransform="matrix(89.587,0,0,51.877,84.917,228.225)">
			<stop offset="0" stop-color="#01c8ef"/>
			<stop offset="1" stop-color="#172f78"/>
		</linearGradient>
		<radialGradient id="g45" cx="0" cy="0" r="1" gradientUnits="userSpaceOnUse" gradientTransform="matrix(200.059,0,0,200.059,69.034,197.832)">
			<stop offset="0" stop-color="#01c8ef"/>
			<stop offset="1" stop-color="#172f78"/>
		</radialGradient>
		<radialGradient id="g46" cx="0" cy="0" r="1" gradientUnits="userSpaceOnUse" gradientTransform="matrix(137.548,0,0,137.548,86.688,209.887)">
			<stop offset="0" stop-color="#01c8ef"/>
			<stop offset="1" stop-color="#172f78"/>
		</radialGradient>
		<linearGradient id="g47" x2="1" gradientUnits="userSpaceOnUse" gradientTransform="matrix(89.587,0,0,51.877,84.917,181.552)">
			<stop offset="0" stop-color="#01c8ef"/>
			<stop offset="1" stop-color="#172f78"/>
		</linearGradient>
		<radialGradient id="g48" cx="0" cy="0" r="1" gradientUnits="userSpaceOnUse" gradientTransform="matrix(200.059,0,0,200.059,69.034,151.158)">
			<stop offset="0" stop-color="#01c8ef"/>
			<stop offset="1" stop-color="#172f78"/>
		</radialGradient>
		<linearGradient id="g49" x2="1" gradientUnits="userSpaceOnUse" gradientTransform="matrix(89.587,0,0,51.877,84.917,133.982)">
			<stop offset="0" stop-color="#01c8ef"/>
			<stop offset="1" stop-color="#172f78"/>
		</linearGradient>
		<radialGradient id="g50" cx="0" cy="0" r="1" gradientUnits="userSpaceOnUse" gradientTransform="matrix(200.059,0,0,200.059,69.034,103.588)">
			<stop offset="0" stop-color="#01c8ef"/>
			<stop offset="1" stop-color="#172f78"/>
		</radialGradient>
		<radialGradient id="g51" cx="0" cy="0" r="1" gradientUnits="userSpaceOnUse" gradientTransform="matrix(137.548,0,0,137.548,86.688,115.643)">
			<stop offset="0" stop-color="#01c8ef"/>
			<stop offset="1" stop-color="#172f78"/>
		</radialGradient>
		<linearGradient id="g52" x2="1" gradientUnits="userSpaceOnUse" gradientTransform="matrix(-154.426,-89.305,1.504,-2.6,-8793.536,16494.181)">
			<stop offset="0" stop-color="#020230"/>
			<stop offset="1" stop-color="#ffffff"/>
		</linearGradient>
		<linearGradient id="g53" x2="1" gradientUnits="userSpaceOnUse" gradientTransform="matrix(0,-126.835,1.125,0,-7036.551,188.936)">
			<stop offset="0" stop-color="#020230"/>
			<stop offset="1" stop-color="#ffffff"/>
		</linearGradient>
		<linearGradient id="g54" x2="1" gradientUnits="userSpaceOnUse" gradientTransform="matrix(0,-126.835,1.125,0,-6995.024,213.172)">
			<stop offset="0" stop-color="#020230"/>
			<stop offset="1" stop-color="#ffffff"/>
		</linearGradient>
		<linearGradient id="g55" x2="1" gradientUnits="userSpaceOnUse" gradientTransform="matrix(0,-126.835,1.125,0,-6953.499,190.422)">
			<stop offset="0" stop-color="#020230"/>
			<stop offset="1" stop-color="#ffffff"/>
		</linearGradient>
		<linearGradient id="g56" x2="1" gradientUnits="userSpaceOnUse" gradientTransform="matrix(59.44,0,0,25.921,108.863,54.476)">
			<stop offset="0" stop-color="#01c8ef"/>
			<stop offset="1" stop-color="#172f78"/>
		</linearGradient>
		<radialGradient id="g57" cx="0" cy="0" r="1" gradientUnits="userSpaceOnUse" gradientTransform="matrix(91.261,0,0,91.261,110.038,42.309)">
			<stop offset="0" stop-color="#01c8ef"/>
			<stop offset="1" stop-color="#172f78"/>
		</radialGradient>
	</defs>
	<style>
		.s0 { opacity: .6;fill: url(#g1) }
		.s1 { opacity: .6;fill: url(#g2) }
		.s2 { opacity: .3;fill: url(#g3) }
		.s3 { fill: #03a7d3 }
		.s4 { fill: url(#g4) }
		.s5 { fill: url(#g5) }
		.s6 { fill: #ffffff }
		.s7 { opacity: .4;fill: #06033e }
		.s8 { fill: url(#g6) }
		.s9 { fill: url(#g7) }
		.s10 { fill: url(#g8) }
		.s11 { fill: url(#g9) }
		.s12 { fill: url(#g10) }
		.s13 { fill: url(#g11) }
		.s14 { fill: url(#g12) }
		.s15 { fill: url(#g13) }
		.s16 { fill: url(#g14) }
		.s17 { fill: url(#g15) }
		.s18 { fill: url(#g16) }
		.s19 { fill: url(#g17) }
		.s20 { fill: url(#g18) }
		.s21 { fill: url(#g19) }
		.s22 { fill: url(#g20) }
		.s23 { fill: url(#g21) }
		.s24 { fill: url(#g22) }
		.s25 { fill: url(#g23) }
		.s26 { fill: url(#g24) }
		.s27 { fill: url(#g25) }
		.s28 { fill: url(#g26) }
		.s29 { fill: url(#g27) }
		.s30 { fill: url(#g28) }
		.s31 { fill: url(#g29) }
		.s32 { fill: url(#g30) }
		.s33 { fill: url(#g31) }
		.s34 { fill: url(#g32) }
		.s35 { fill: url(#g33) }
		.s36 { fill: url(#g34) }
		.s37 { fill: url(#g35) }
		.s38 { fill: url(#g36) }
		.s39 { fill: url(#g37) }
		.s40 { fill: url(#g38) }
		.s41 { fill: url(#g39) }
		.s42 { fill: url(#g40) }
		.s43 { fill: url(#g41) }
		.s44 { fill: url(#g42) }
		.s45 { fill: url(#g43) }
		.s46 { fill: url(#g44) }
		.s47 { fill: url(#g45) }
		.s48 { fill: url(#g46) }
		.s49 { fill: url(#g47) }
		.s50 { fill: url(#g48) }
		.s51 { fill: url(#g49) }
		.s52 { fill: url(#g50) }
		.s53 { fill: url(#g51) }
		.s54 { opacity: .8;fill: #01c8ef }
		.s55 { opacity: .3;fill: url(#g52) }
		.s56 { opacity: .3;fill: url(#g53) }
		.s57 { opacity: .3;fill: url(#g54) }
		.s58 { opacity: .3;fill: url(#g55) }
		.s59 { fill: url(#g56) }
		.s60 { fill: url(#g57) }
	</style>
	<g id="321353356351 1">
		<g id="&lt;Group&gt;">
			<g id="&lt;Group&gt;">
				<path id="&lt;Path&gt;" class="s0" d="m255.7 277.2v126.8h1.1v-124.6z"/>
				<path id="&lt;Path&gt;" class="s1" d="m361.1 277.2v126.8h1.1v-124.6z"/>
				<path id="&lt;Path&gt;" class="s2" d="m255.7 277.6v126.8h106.5v-124.6z"/>
				<g id="&lt;Group&gt;">
					<path id="&lt;Compound Path&gt;" fill-rule="evenodd" class="s3" d="m308.8 324.5c-2.8 0-5.7-0.6-7.9-1.8l-52.8-30.6c-2.2-1.2-3.4-3-3.4-4.8 0-1.9 1.2-3.6 3.4-4.8l52.6-30.6c4.3-2.5 11.4-2.5 15.7 0l52.9 30.5c2.2 1.3 3.4 3 3.4 4.8 0 1.9-1.2 3.6-3.4 4.9l-52.6 30.6c-2.2 1.2-5 1.8-7.9 1.8zm-0.3-73.5c-2.6 0-5.3 0.6-7.3 1.7l-52.7 30.6c-1.8 1.1-2.9 2.5-2.9 4 0 1.5 1.1 2.9 2.9 4l52.9 30.5c4.1 2.3 10.7 2.3 14.8 0l52.6-30.6c1.9-1.1 2.9-2.5 2.9-4 0-1.4-1-2.9-2.9-3.9l-52.9-30.6c-2-1.1-4.7-1.7-7.4-1.7z"/>
					<g id="&lt;Group&gt;">
						<path id="&lt;Path&gt;" class="s4" d="m372.4 270.5v-25.3l-32 4.3-24-13.9c-4.2-2.4-11-2.4-15.2 0l-3.8 2.4-52 6.9v25.7q0 0 0 0v0.1c0.1 1.6 1.1 3.1 3.2 4.3l52.8 30.5c4.3 2.5 11.1 2.5 15.3 0l52.6-30.6c2-1.1 3.1-2.7 3.1-4.2z"/>
						<path id="&lt;Path&gt;" class="s5" d="m369.3 240.6l-52.9-30.5c-4.2-2.5-11-2.5-15.2 0l-52.6 30.6c-4.2 2.4-4.2 6.3 0 8.8l52.8 30.5c4.3 2.4 11.1 2.4 15.3 0l52.6-30.6c4.2-2.4 4.2-6.4 0-8.8z"/>
						<path id="&lt;Path&gt;" class="s6" d="m369.3 247.9l-52.6 30.6c-4.2 2.4-11 2.4-15.3 0l-52.8-30.6c-1.8-1-2.8-2.3-3.1-3.6-0.4 1.8 0.6 3.7 3.1 5.2l52.8 30.5c4.3 2.4 11.1 2.4 15.3 0l52.6-30.6c2.4-1.4 3.5-3.3 3.1-5.2-0.3 1.4-1.3 2.6-3.1 3.7z"/>
						<g id="&lt;Group&gt;">
							<path id="&lt;Path&gt;" class="s6" d="m323.8 286.8l-2.5 1.4v-2.9l2.5-1.4z"/>
							<path id="&lt;Path&gt;" class="s6" d="m329 283.7l-2.5 1.5v-2.9l2.5-1.5z"/>
							<path id="&lt;Path&gt;" class="s6" d="m334.3 280.7l-2.5 1.5v-2.9l2.5-1.5z"/>
							<path id="&lt;Path&gt;" class="s6" d="m330 289l-2.5 1.5v-2.9l2.5-1.5z"/>
							<path id="&lt;Path&gt;" class="s6" d="m334.6 286.4l-2.5 1.4v-2.9l2.5-1.4z"/>
							<path id="&lt;Path&gt;" class="s6" d="m351.1 271l-2.5 1.5v-2.9l2.5-1.5z"/>
							<path id="&lt;Path&gt;" class="s6" d="m365.5 262.7l-2.5 1.4v-2.9l2.5-1.4z"/>
							<path id="&lt;Path&gt;" class="s6" d="m339.5 277.7l-2.5 1.4v-2.9l2.5-1.4z"/>
						</g>
					</g>
					<path id="&lt;Path&gt;" class="s7" d="m305.9 267.1l-35.5-20.6c-1.5-0.8-1.3-2.2 0.4-3.2l34.7-20.1c1.7-0.9 4.2-1.1 5.7-0.2l35.6 20.5c1.4 0.9 1.2 2.3-0.5 3.3l-34.7 20.1c-1.7 0.9-4.2 1-5.7 0.2z"/>
					<path id="&lt;Path&gt;" class="s6" d="m291.9 289.3l-29.3-16.9c-0.7-0.4-1.3-1.5-1.3-2.4v-2.2c0-1 0.6-1.4 1.3-1l29.3 17c0.7 0.4 1.3 1.5 1.3 2.4v2.2c0 0.9-0.6 1.3-1.3 0.9z"/>
					<g id="&lt;Group&gt;">
						<path id="&lt;Path&gt;" class="s8" d="m372.4 223v-25.4l-32 4.3-24-13.9c-4.2-2.4-11-2.4-15.2 0l-3.8 2.4-52 7v25.6q0 0 0 0.1v0.1c0.1 1.5 1.1 3.1 3.2 4.2l52.8 30.6c4.3 2.4 11.1 2.4 15.3 0l52.6-30.6c2-1.2 3.1-2.7 3.1-4.3z"/>
						<path id="&lt;Path&gt;" class="s9" d="m369.3 193l-52.9-30.5c-4.2-2.4-11-2.4-15.2 0l-52.6 30.6c-4.2 2.4-4.2 6.4 0 8.8l52.8 30.5c4.3 2.5 11.1 2.5 15.3 0l52.6-30.6c4.2-2.4 4.2-6.3 0-8.8z"/>
						<path id="&lt;Path&gt;" class="s7" d="m344.1 194.9l-30.8-17.8c-2.5-1.4-6.4-1.4-8.9 0l-30.6 17.8c-2.5 1.4-2.5 3.7 0 5.1l30.8 17.8c2.4 1.4 6.4 1.4 8.8 0l30.7-17.8c2.5-1.4 2.5-3.7 0-5.1z"/>
						<path id="&lt;Path&gt;" class="s6" d="m369.3 200.3l-52.6 30.6c-4.2 2.4-11 2.4-15.3 0l-52.8-30.5c-1.8-1.1-2.8-2.4-3.1-3.7-0.4 1.9 0.6 3.8 3.1 5.2l52.8 30.5c4.3 2.5 11.1 2.5 15.3 0l52.6-30.6c2.4-1.4 3.5-3.3 3.1-5.1-0.3 1.3-1.3 2.6-3.1 3.6z"/>
						<g id="&lt;Group&gt;">
							<path id="&lt;Path&gt;" class="s6" d="m323.8 239.2l-2.5 1.4v-2.9l2.5-1.4z"/>
							<path id="&lt;Path&gt;" class="s6" d="m329 236.2l-2.5 1.4v-2.9l2.5-1.4z"/>
							<path id="&lt;Path&gt;" class="s6" d="m334.3 233.1l-2.5 1.5v-2.9l2.5-1.5z"/>
							<path id="&lt;Path&gt;" class="s6" d="m330 241.5l-2.5 1.4v-2.9l2.5-1.4z"/>
							<path id="&lt;Path&gt;" class="s6" d="m334.6 238.8l-2.5 1.5v-2.9l2.5-1.5z"/>
							<path id="&lt;Path&gt;" class="s6" d="m351.1 223.4l-2.5 1.5v-2.9l2.5-1.5z"/>
							<path id="&lt;Path&gt;" class="s6" d="m365.5 215.1l-2.5 1.5v-2.9l2.5-1.5z"/>
							<path id="&lt;Path&gt;" class="s6" d="m339.5 230.1l-2.5 1.5v-2.9l2.5-1.5z"/>
						</g>
					</g>
					<g id="&lt;Group&gt;">
						<path id="&lt;Path&gt;" class="s10" d="m372.4 175.4v-25.3l-32 4.2-24-13.8c-4.2-2.5-11-2.5-15.2 0l-3.8 2.3-52 7v25.6q0 0.1 0 0.1v0.1c0.1 1.5 1.1 3.1 3.2 4.3l52.8 30.5c4.3 2.4 11.1 2.4 15.3 0l52.6-30.6c2-1.2 3.1-2.7 3.1-4.2z"/>
						<path id="&lt;Path&gt;" class="s11" d="m369.3 145.5l-52.9-30.6c-4.2-2.4-11-2.4-15.2 0l-52.6 30.6c-4.2 2.4-4.2 6.4 0 8.8l52.8 30.6c4.3 2.4 11.1 2.4 15.3 0l52.6-30.6c4.2-2.5 4.2-6.4 0-8.8z"/>
						<path id="&lt;Path&gt;" class="s12" d="m369.3 145.5l-52.9-30.6c-4.2-2.4-11-2.4-15.2 0l-52.6 30.6c-4.2 2.4-4.2 6.4 0 8.8l52.8 30.6c4.3 2.4 11.1 2.4 15.3 0l52.6-30.6c4.2-2.5 4.2-6.4 0-8.8z"/>
						<path id="&lt;Path&gt;" class="s7" d="m348.9 147l-35-20.3c-2.8-1.6-7.3-1.6-10.1 0l-34.9 20.3c-2.8 1.6-2.8 4.2 0 5.8l35.1 20.3c2.8 1.6 7.3 1.6 10.1 0l34.8-20.3c2.8-1.6 2.8-4.2 0-5.8z"/>
						<path id="&lt;Path&gt;" class="s6" d="m369.3 152.7l-52.6 30.6c-4.2 2.4-11 2.4-15.3 0l-52.8-30.5c-1.8-1-2.8-2.3-3.1-3.7-0.4 1.9 0.6 3.8 3.1 5.2l52.8 30.6c4.3 2.4 11.1 2.4 15.3 0l52.6-30.6c2.4-1.4 3.5-3.4 3.1-5.2-0.3 1.3-1.3 2.6-3.1 3.6z"/>
						<g id="&lt;Group&gt;">
							<path id="&lt;Path&gt;" class="s6" d="m323.8 191.6l-2.5 1.5v-2.9l2.5-1.5z"/>
							<path id="&lt;Path&gt;" class="s6" d="m329 188.6l-2.5 1.4v-2.9l2.5-1.4z"/>
							<path id="&lt;Path&gt;" class="s6" d="m334.3 185.6l-2.5 1.4v-2.9l2.5-1.4z"/>
							<path id="&lt;Path&gt;" class="s6" d="m330 193.9l-2.5 1.4v-2.8l2.5-1.5z"/>
							<path id="&lt;Path&gt;" class="s6" d="m334.6 191.2l-2.5 1.5v-2.9l2.5-1.5z"/>
							<path id="&lt;Path&gt;" class="s6" d="m351.1 175.9l-2.5 1.4v-2.9l2.5-1.4z"/>
							<path id="&lt;Path&gt;" class="s6" d="m365.5 167.5l-2.5 1.5v-2.9l2.5-1.5z"/>
							<path id="&lt;Path&gt;" class="s6" d="m339.5 182.5l-2.5 1.5v-2.9l2.5-1.4z"/>
						</g>
					</g>
					<g id="&lt;Group&gt;">
						<path id="&lt;Path&gt;" class="s13" d="m372.4 128.7v-25.3l-32 4.3-24-13.9c-4.2-2.4-11-2.4-15.2 0l-3.8 2.4-52 6.9v25.7q0 0 0 0v0.1c0.1 1.6 1.1 3.1 3.2 4.3l52.8 30.5c4.3 2.5 11.1 2.5 15.3 0l52.6-30.6c2-1.1 3.1-2.7 3.1-4.2z"/>
						<path id="&lt;Path&gt;" class="s14" d="m369.3 98.8l-52.9-30.5c-4.2-2.5-11-2.5-15.2 0l-52.6 30.5c-4.2 2.5-4.2 6.4 0 8.8l52.8 30.6c4.3 2.4 11.1 2.4 15.3 0l52.6-30.6c4.2-2.4 4.2-6.4 0-8.8z"/>
						<path id="&lt;Path&gt;" class="s7" d="m344.1 100.6l-30.8-17.8c-2.5-1.4-6.4-1.4-8.9 0l-30.6 17.9c-2.5 1.4-2.5 3.7 0 5.1l30.8 17.8c2.4 1.4 6.4 1.4 8.8 0l30.7-17.8c2.5-1.5 2.5-3.7 0-5.2z"/>
						<path id="&lt;Path&gt;" class="s6" d="m369.3 106.1l-52.6 30.5c-4.2 2.5-11 2.5-15.3 0l-52.8-30.5c-1.8-1-2.8-2.3-3.1-3.6-0.4 1.8 0.6 3.7 3.1 5.1l52.8 30.6c4.3 2.4 11.1 2.4 15.3 0l52.6-30.6c2.4-1.4 3.5-3.3 3.1-5.2-0.3 1.3-1.3 2.6-3.1 3.7z"/>
						<g id="&lt;Group&gt;">
							<path id="&lt;Path&gt;" class="s6" d="m323.8 144.9l-2.5 1.5v-2.9l2.5-1.4z"/>
							<path id="&lt;Path&gt;" class="s6" d="m329 141.9l-2.5 1.5v-2.9l2.5-1.5z"/>
							<path id="&lt;Path&gt;" class="s6" d="m334.3 138.9l-2.5 1.4v-2.8l2.5-1.5z"/>
							<path id="&lt;Path&gt;" class="s6" d="m330 147.2l-2.5 1.5v-2.9l2.5-1.5z"/>
							<path id="&lt;Path&gt;" class="s6" d="m334.6 144.6l-2.5 1.4v-2.9l2.5-1.4z"/>
							<path id="&lt;Path&gt;" class="s6" d="m351.1 129.2l-2.5 1.4v-2.8l2.5-1.5z"/>
							<path id="&lt;Path&gt;" class="s6" d="m365.5 120.9l-2.5 1.4v-2.9l2.5-1.4z"/>
							<path id="&lt;Path&gt;" class="s6" d="m339.5 135.9l-2.5 1.4v-2.9l2.5-1.4z"/>
						</g>
					</g>
					<g id="&lt;Group&gt;">
						<path id="&lt;Path&gt;" class="s15" d="m372.4 81.2v-25.4l-32 4.3-24-13.9c-4.2-2.4-11-2.4-15.2 0l-3.8 2.4-52 6.9v25.7q0 0 0 0v0.2c0.1 1.5 1.1 3 3.2 4.2l52.8 30.6c4.3 2.4 11.1 2.4 15.3 0l52.6-30.6c2-1.2 3.1-2.7 3.1-4.3z"/>
						<path id="&lt;Path&gt;" class="s16" d="m369.3 51.2l-52.9-30.5c-4.2-2.4-11-2.4-15.2 0l-52.6 30.6c-4.2 2.4-4.2 6.3 0 8.8l52.8 30.5c4.3 2.4 11.1 2.4 15.3 0l52.6-30.6c4.2-2.4 4.2-6.4 0-8.8z"/>
						<path id="&lt;Path&gt;" class="s17" d="m369.3 51.2l-52.9-30.5c-4.2-2.4-11-2.4-15.2 0l-52.6 30.6c-4.2 2.4-4.2 6.3 0 8.8l52.8 30.5c4.3 2.4 11.1 2.4 15.3 0l52.6-30.6c4.2-2.4 4.2-6.4 0-8.8z"/>
						<path id="&lt;Compound Path&gt;" fill-rule="evenodd" class="s7" d="m309 80.6c-1.9 0-3.8-0.4-5.3-1.3l-35.1-20.2c-1.5-0.9-2.3-2.1-2.3-3.4 0-1.4 0.8-2.6 2.3-3.4l34.9-20.3c2.9-1.7 7.7-1.7 10.7 0l35 20.2c1.5 0.9 2.4 2.1 2.4 3.4 0 1.3-0.9 2.6-2.4 3.4l-34.8 20.3c-1.5 0.9-3.4 1.3-5.4 1.3zm-0.2-48.8c-1.7 0-3.4 0.4-4.7 1.2l-34.9 20.2c-1.1 0.7-1.8 1.6-1.8 2.5 0 0.9 0.7 1.7 1.8 2.4l35.1 20.2c2.6 1.5 6.9 1.5 9.5 0l34.8-20.3c1.2-0.6 1.8-1.5 1.8-2.4 0-0.9-0.6-1.7-1.8-2.4l-35-20.2c-1.3-0.8-3-1.2-4.8-1.2z"/>
						<path id="&lt;Path&gt;" class="s6" d="m369.3 58.5l-52.6 30.6c-4.2 2.4-11 2.4-15.3 0l-52.8-30.6c-1.8-1-2.8-2.3-3.1-3.6-0.4 1.8 0.6 3.8 3.1 5.2l52.8 30.5c4.3 2.4 11.1 2.4 15.3 0l52.6-30.6c2.4-1.4 3.5-3.3 3.1-5.2-0.3 1.4-1.3 2.7-3.1 3.7z"/>
						<g id="&lt;Group&gt;">
							<path id="&lt;Path&gt;" class="s6" d="m323.8 97.4l-2.5 1.4v-2.9l2.5-1.4z"/>
							<path id="&lt;Path&gt;" class="s6" d="m329 94.4l-2.5 1.4v-2.9l2.5-1.4z"/>
							<path id="&lt;Path&gt;" class="s6" d="m334.3 91.3l-2.5 1.5v-2.9l2.5-1.5z"/>
							<path id="&lt;Path&gt;" class="s6" d="m330 99.7l-2.5 1.4v-2.9l2.5-1.4z"/>
							<path id="&lt;Path&gt;" class="s6" d="m334.6 97l-2.5 1.4v-2.9l2.5-1.4z"/>
							<path id="&lt;Path&gt;" class="s6" d="m351.1 81.6l-2.5 1.5v-2.9l2.5-1.5z"/>
							<path id="&lt;Path&gt;" class="s6" d="m365.5 73.3l-2.5 1.4v-2.8l2.5-1.5z"/>
							<path id="&lt;Path&gt;" class="s6" d="m339.5 88.3l-2.5 1.4v-2.8l2.5-1.5z"/>
						</g>
					</g>
				</g>
			</g>
			<g id="&lt;Group&gt;">
				<g id="&lt;Group&gt;">
					<g id="&lt;Group&gt;">
						<path id="&lt;Compound Path&gt;" fill-rule="evenodd" class="s3" d="m461.7 414.1c-2.9 0-5.7-0.6-7.9-1.9l-52.9-30.5c-2.2-1.3-3.4-3-3.4-4.8 0-1.9 1.2-3.6 3.4-4.9l52.6-30.6c4.4-2.5 11.4-2.5 15.7 0l52.9 30.6c2.2 1.3 3.4 3 3.4 4.8 0 1.9-1.2 3.6-3.4 4.8l-52.6 30.6c-2.1 1.3-5 1.9-7.8 1.9zm-0.3-73.6c-2.7 0-5.4 0.6-7.4 1.8l-52.6 30.6c-1.9 1.1-2.9 2.5-2.9 4 0 1.4 1 2.9 2.9 3.9l52.9 30.6c4.1 2.3 10.7 2.3 14.7 0l52.6-30.6c1.9-1.1 2.9-2.5 2.9-4 0-1.5-1-2.9-2.9-4l-52.8-30.5c-2.1-1.2-4.8-1.8-7.4-1.8z"/>
						<g id="&lt;Group&gt;">
							<path id="&lt;Path&gt;" class="s18" d="m525.3 360.1v-25.3l-32.1 4.2-23.9-13.8c-4.3-2.4-11.1-2.4-15.3 0l-3.7 2.4-52 6.9v25.7q0 0 0 0v0.1c0 1.6 1.1 3.1 3.1 4.3l52.9 30.5c4.2 2.4 11 2.4 15.2 0l52.6-30.6c2.1-1.2 3.1-2.7 3.2-4.2z"/>
							<path id="&lt;Path&gt;" class="s19" d="m522.1 330.2l-52.8-30.6c-4.3-2.4-11.1-2.4-15.3 0l-52.6 30.6c-4.2 2.5-4.2 6.4 0 8.8l52.9 30.6c4.2 2.4 11 2.4 15.2 0l52.6-30.6c4.3-2.5 4.3-6.4 0-8.8z"/>
							<path id="&lt;Path&gt;" class="s6" d="m522.1 337.4l-52.6 30.6c-4.2 2.5-11 2.5-15.2 0l-52.9-30.5c-1.8-1-2.8-2.3-3.1-3.6-0.3 1.8 0.7 3.7 3.1 5.1l52.9 30.6c4.2 2.4 11 2.4 15.2 0l52.6-30.6c2.5-1.4 3.5-3.4 3.1-5.2-0.3 1.3-1.3 2.6-3.1 3.6z"/>
							<g id="&lt;Group&gt;">
								<path id="&lt;Path&gt;" class="s6" d="m476.6 376.3l-2.5 1.5v-2.9l2.5-1.5z"/>
								<path id="&lt;Path&gt;" class="s6" d="m481.9 373.3l-2.5 1.5v-2.9l2.5-1.5z"/>
								<path id="&lt;Path&gt;" class="s6" d="m487.1 370.3l-2.5 1.4v-2.9l2.5-1.4z"/>
								<path id="&lt;Path&gt;" class="s6" d="m482.8 378.6l-2.5 1.5v-2.9l2.5-1.5z"/>
								<path id="&lt;Path&gt;" class="s6" d="m487.5 376l-2.6 1.4v-2.9l2.6-1.4z"/>
								<path id="&lt;Path&gt;" class="s6" d="m503.9 360.6l-2.5 1.4v-2.9l2.5-1.4z"/>
								<path id="&lt;Path&gt;" class="s6" d="m518.4 352.3l-2.6 1.4v-2.9l2.6-1.4z"/>
								<path id="&lt;Path&gt;" class="s6" d="m492.4 367.3l-2.5 1.4v-2.9l2.5-1.4z"/>
							</g>
						</g>
						<path id="&lt;Path&gt;" class="s7" d="m458.8 356.7l-35.6-20.6c-1.4-0.8-1.3-2.3 0.4-3.2l34.8-20.1c1.6-1 4.2-1.1 5.6-0.2l35.6 20.5c1.4 0.8 1.3 2.3-0.4 3.3l-34.8 20c-1.6 1-4.2 1.1-5.6 0.3z"/>
						<path id="&lt;Path&gt;" class="s6" d="m444.8 378.9l-29.4-17c-0.7-0.4-1.2-1.4-1.2-2.4v-2.2c0-0.9 0.5-1.3 1.2-0.9l29.4 16.9c0.7 0.4 1.3 1.5 1.3 2.5v2.1c0 1-0.6 1.4-1.3 1z"/>
						<g id="&lt;Group&gt;">
							<path id="&lt;Path&gt;" class="s20" d="m525.3 312.5v-25.3l-32.1 4.3-23.9-13.9c-4.3-2.4-11.1-2.4-15.3 0l-3.7 2.4-52 6.9v25.7q0 0 0 0v0.1c0 1.6 1.1 3.1 3.1 4.3l52.9 30.5c4.2 2.5 11 2.5 15.2 0l52.6-30.6c2.1-1.1 3.1-2.7 3.2-4.2z"/>
							<path id="&lt;Path&gt;" class="s21" d="m522.1 282.6l-52.8-30.5c-4.3-2.5-11.1-2.5-15.3 0l-52.6 30.6c-4.2 2.4-4.2 6.3 0 8.8l52.9 30.5c4.2 2.4 11 2.4 15.2 0l52.6-30.6c4.3-2.4 4.3-6.4 0-8.8z"/>
							<path id="&lt;Path&gt;" class="s7" d="m497 284.5l-30.9-17.8c-2.4-1.5-6.4-1.5-8.8 0l-30.7 17.8c-2.4 1.4-2.4 3.7 0 5.1l30.8 17.8c2.5 1.4 6.4 1.4 8.9 0l30.7-17.8c2.4-1.4 2.4-3.7 0-5.1z"/>
							<path id="&lt;Path&gt;" class="s6" d="m522.1 289.9l-52.6 30.6c-4.2 2.4-11 2.4-15.2 0l-52.9-30.6c-1.8-1-2.8-2.3-3.1-3.6-0.3 1.8 0.7 3.7 3.1 5.2l52.9 30.5c4.2 2.4 11 2.4 15.2 0l52.6-30.6c2.5-1.4 3.5-3.3 3.1-5.2-0.3 1.4-1.3 2.6-3.1 3.7z"/>
							<g id="&lt;Group&gt;">
								<path id="&lt;Path&gt;" class="s6" d="m476.6 328.8l-2.5 1.4v-2.9l2.5-1.4z"/>
								<path id="&lt;Path&gt;" class="s6" d="m481.9 325.7l-2.5 1.5v-2.9l2.5-1.5z"/>
								<path id="&lt;Path&gt;" class="s6" d="m487.1 322.7l-2.5 1.5v-2.9l2.5-1.5z"/>
								<path id="&lt;Path&gt;" class="s6" d="m482.8 331l-2.5 1.5v-2.9l2.5-1.4z"/>
								<path id="&lt;Path&gt;" class="s6" d="m487.5 328.4l-2.6 1.4v-2.9l2.6-1.4z"/>
								<path id="&lt;Path&gt;" class="s6" d="m503.9 313l-2.5 1.5v-2.9l2.5-1.5z"/>
								<path id="&lt;Path&gt;" class="s6" d="m518.4 304.7l-2.6 1.4v-2.9l2.6-1.4z"/>
								<path id="&lt;Path&gt;" class="s6" d="m492.4 319.7l-2.5 1.4v-2.9l2.5-1.4z"/>
							</g>
						</g>
						<g id="&lt;Group&gt;">
							<path id="&lt;Path&gt;" class="s22" d="m525.3 265v-25.4l-32.1 4.3-23.9-13.9c-4.3-2.4-11.1-2.4-15.3 0l-3.7 2.4-52 7v25.6q0 0 0 0.1v0.1c0 1.5 1.1 3.1 3.1 4.2l52.9 30.6c4.2 2.4 11 2.4 15.2 0l52.6-30.6c2.1-1.2 3.1-2.7 3.2-4.3z"/>
							<path id="&lt;Path&gt;" class="s23" d="m522.1 235l-52.8-30.5c-4.3-2.4-11.1-2.4-15.3 0l-52.6 30.6c-4.2 2.4-4.2 6.4 0 8.8l52.9 30.5c4.2 2.5 11 2.5 15.2 0l52.6-30.6c4.3-2.4 4.3-6.3 0-8.8z"/>
							<path id="&lt;Path&gt;" class="s24" d="m522.1 235l-52.8-30.5c-4.3-2.4-11.1-2.4-15.3 0l-52.6 30.6c-4.2 2.4-4.2 6.4 0 8.8l52.9 30.5c4.2 2.5 11 2.5 15.2 0l52.6-30.6c4.3-2.4 4.3-6.3 0-8.8z"/>
							<path id="&lt;Path&gt;" class="s7" d="m501.8 236.5l-35.1-20.2c-2.8-1.6-7.3-1.6-10.1 0l-34.8 20.3c-2.8 1.6-2.8 4.2 0 5.8l35 20.2c2.8 1.6 7.3 1.6 10.1 0l34.9-20.2c2.8-1.7 2.8-4.3 0-5.9z"/>
							<path id="&lt;Path&gt;" class="s6" d="m522.1 242.3l-52.6 30.6c-4.2 2.4-11 2.4-15.2 0l-52.9-30.5c-1.8-1.1-2.8-2.4-3.1-3.7-0.3 1.9 0.7 3.8 3.1 5.2l52.9 30.5c4.2 2.5 11 2.5 15.2 0l52.6-30.6c2.5-1.4 3.5-3.3 3.1-5.1-0.3 1.3-1.3 2.6-3.1 3.6z"/>
							<g id="&lt;Group&gt;">
								<path id="&lt;Path&gt;" class="s6" d="m476.6 281.2l-2.5 1.4v-2.9l2.5-1.4z"/>
								<path id="&lt;Path&gt;" class="s6" d="m481.9 278.2l-2.5 1.4v-2.9l2.5-1.4z"/>
								<path id="&lt;Path&gt;" class="s6" d="m487.1 275.1l-2.5 1.5v-2.9l2.5-1.4z"/>
								<path id="&lt;Path&gt;" class="s6" d="m482.8 283.5l-2.5 1.4v-2.9l2.5-1.4z"/>
								<path id="&lt;Path&gt;" class="s6" d="m487.5 280.8l-2.6 1.5v-2.9l2.6-1.5z"/>
								<path id="&lt;Path&gt;" class="s6" d="m503.9 265.4l-2.5 1.5v-2.9l2.5-1.4z"/>
								<path id="&lt;Path&gt;" class="s6" d="m518.4 257.1l-2.6 1.5v-2.9l2.6-1.5z"/>
								<path id="&lt;Path&gt;" class="s6" d="m492.4 272.1l-2.5 1.5v-2.9l2.5-1.5z"/>
							</g>
						</g>
						<g id="&lt;Group&gt;">
							<path id="&lt;Path&gt;" class="s25" d="m525.3 218.3v-25.3l-32.1 4.2-23.9-13.8c-4.3-2.5-11.1-2.5-15.3 0l-3.7 2.3-52 7v25.6q0 0.1 0 0.1v0.1c0 1.5 1.1 3.1 3.1 4.3l52.9 30.5c4.2 2.4 11 2.4 15.2 0l52.6-30.6c2.1-1.2 3.1-2.7 3.2-4.2z"/>
							<path id="&lt;Path&gt;" class="s26" d="m522.1 188.4l-52.8-30.6c-4.3-2.4-11.1-2.4-15.3 0l-52.6 30.6c-4.2 2.4-4.2 6.4 0 8.8l52.9 30.5c4.2 2.5 11 2.5 15.2 0l52.6-30.5c4.3-2.5 4.3-6.4 0-8.8z"/>
							<path id="&lt;Path&gt;" class="s7" d="m497 190.2l-30.9-17.8c-2.4-1.4-6.4-1.4-8.8 0l-30.7 17.8c-2.4 1.5-2.4 3.8 0 5.2l30.8 17.8c2.5 1.4 6.4 1.4 8.9 0l30.7-17.9c2.4-1.4 2.4-3.7 0-5.1z"/>
							<path id="&lt;Path&gt;" class="s6" d="m522.1 195.6l-52.6 30.6c-4.2 2.4-11 2.4-15.2 0l-52.9-30.5c-1.8-1-2.8-2.3-3.1-3.7-0.3 1.9 0.7 3.8 3.1 5.2l52.9 30.5c4.2 2.5 11 2.5 15.2 0l52.6-30.5c2.5-1.5 3.5-3.4 3.1-5.2-0.3 1.3-1.3 2.6-3.1 3.6z"/>
							<g id="&lt;Group&gt;">
								<path id="&lt;Path&gt;" class="s6" d="m476.6 234.5l-2.5 1.5v-2.9l2.5-1.5z"/>
								<path id="&lt;Path&gt;" class="s6" d="m481.9 231.5l-2.5 1.4v-2.9l2.5-1.4z"/>
								<path id="&lt;Path&gt;" class="s6" d="m487.1 228.5l-2.5 1.4v-2.9l2.5-1.4z"/>
								<path id="&lt;Path&gt;" class="s6" d="m482.8 236.8l-2.5 1.4v-2.8l2.5-1.5z"/>
								<path id="&lt;Path&gt;" class="s6" d="m487.5 234.1l-2.6 1.5v-2.9l2.6-1.5z"/>
								<path id="&lt;Path&gt;" class="s6" d="m503.9 218.8l-2.5 1.4v-2.9l2.5-1.4z"/>
								<path id="&lt;Path&gt;" class="s6" d="m518.4 210.4l-2.6 1.5v-2.9l2.6-1.5z"/>
								<path id="&lt;Path&gt;" class="s6" d="m492.4 225.4l-2.5 1.5v-2.9l2.5-1.4z"/>
							</g>
						</g>
						<g id="&lt;Group&gt;">
							<path id="&lt;Path&gt;" class="s27" d="m525.3 170.7v-25.3l-32.1 4.3-23.9-13.9c-4.3-2.4-11.1-2.4-15.3 0l-3.7 2.4-52 6.9v25.7q0 0 0 0v0.1c0 1.6 1.1 3.1 3.1 4.3l52.9 30.5c4.2 2.5 11 2.5 15.2 0l52.6-30.6c2.1-1.1 3.1-2.7 3.2-4.2z"/>
							<path id="&lt;Path&gt;" class="s28" d="m522.1 140.8l-52.8-30.5c-4.3-2.5-11.1-2.5-15.3 0l-52.6 30.5c-4.2 2.5-4.2 6.4 0 8.8l52.9 30.6c4.2 2.4 11 2.4 15.2 0l52.6-30.6c4.3-2.4 4.3-6.4 0-8.8z"/>
							<path id="&lt;Path&gt;" class="s29" d="m522.1 140.8l-52.8-30.5c-4.3-2.5-11.1-2.5-15.3 0l-52.6 30.5c-4.2 2.5-4.2 6.4 0 8.8l52.9 30.6c4.2 2.4 11 2.4 15.2 0l52.6-30.6c4.3-2.4 4.3-6.4 0-8.8z"/>
							<path id="&lt;Compound Path&gt;" fill-rule="evenodd" class="s7" d="m461.9 170.2c-2 0-3.9-0.5-5.4-1.3l-35-20.3c-1.5-0.8-2.4-2-2.4-3.4 0-1.3 0.9-2.5 2.4-3.4l34.8-20.2c3-1.7 7.8-1.7 10.7 0l35.1 20.2c1.5 0.9 2.3 2.1 2.3 3.4 0 1.3-0.8 2.5-2.3 3.4l-34.9 20.3c-1.5 0.8-3.4 1.3-5.3 1.3zm-0.2-48.8c-1.7 0-3.5 0.4-4.8 1.2l-34.8 20.2c-1.2 0.7-1.8 1.5-1.8 2.4 0 0.9 0.6 1.8 1.8 2.5l35 20.2c2.6 1.5 6.9 1.5 9.5 0l34.9-20.3c1.2-0.7 1.8-1.5 1.8-2.4 0-0.9-0.6-1.7-1.8-2.4l-35.1-20.2c-1.3-0.8-3-1.2-4.7-1.2z"/>
							<path id="&lt;Path&gt;" class="s6" d="m522.1 148.1l-52.6 30.5c-4.2 2.5-11 2.5-15.2 0l-52.9-30.5c-1.8-1-2.8-2.3-3.1-3.6-0.3 1.8 0.7 3.7 3.1 5.1l52.9 30.6c4.2 2.4 11 2.4 15.2 0l52.6-30.6c2.5-1.4 3.5-3.3 3.1-5.2-0.3 1.3-1.3 2.6-3.1 3.7z"/>
							<g id="&lt;Group&gt;">
								<path id="&lt;Path&gt;" class="s6" d="m476.6 186.9l-2.5 1.5v-2.9l2.5-1.4z"/>
								<path id="&lt;Path&gt;" class="s6" d="m481.9 183.9l-2.5 1.5v-2.9l2.5-1.5z"/>
								<path id="&lt;Path&gt;" class="s6" d="m487.1 180.9l-2.5 1.4v-2.8l2.5-1.5z"/>
								<path id="&lt;Path&gt;" class="s6" d="m482.8 189.2l-2.5 1.5v-2.9l2.5-1.5z"/>
								<path id="&lt;Path&gt;" class="s6" d="m487.5 186.6l-2.6 1.4v-2.9l2.6-1.4z"/>
								<path id="&lt;Path&gt;" class="s6" d="m503.9 171.2l-2.5 1.4v-2.8l2.5-1.5z"/>
								<path id="&lt;Path&gt;" class="s6" d="m518.4 162.9l-2.6 1.4v-2.9l2.6-1.4z"/>
								<path id="&lt;Path&gt;" class="s6" d="m492.4 177.9l-2.5 1.4v-2.9l2.5-1.4z"/>
							</g>
						</g>
					</g>
				</g>
				<g id="&lt;Group&gt;">
					<g id="&lt;Group&gt;">
						<path id="&lt;Compound Path&gt;" fill-rule="evenodd" class="s3" d="m308.9 507.3c-2.8 0-5.7-0.6-7.8-1.9l-52.9-30.5c-2.2-1.3-3.4-3-3.4-4.8 0-1.9 1.2-3.6 3.4-4.8l52.6-30.6c4.3-2.5 11.4-2.5 15.7 0l52.9 30.5c2.2 1.3 3.4 3 3.4 4.8 0 1.9-1.2 3.6-3.4 4.9l-52.6 30.5c-2.2 1.3-5 1.9-7.9 1.9zm-0.2-73.5c-2.7 0-5.4 0.5-7.4 1.7l-52.6 30.6c-1.9 1.1-2.9 2.5-2.9 4 0 1.5 1 2.9 2.9 4l52.9 30.5c4 2.3 10.6 2.3 14.7 0l52.6-30.6c1.9-1.1 2.9-2.5 2.9-4 0-1.5-1-2.9-2.9-3.9l-52.9-30.6c-2-1.2-4.7-1.7-7.3-1.7z"/>
						<g id="&lt;Group&gt;">
							<path id="&lt;Path&gt;" class="s30" d="m372.6 453.3v-25.3l-32.1 4.3-24-13.9c-4.2-2.4-11-2.4-15.2 0l-3.7 2.4-52.1 6.9v25.7q0 0 0 0v0.1h0.1c0 1.6 1 3.1 3.1 4.3l52.9 30.5c4.2 2.5 11 2.5 15.2 0l52.6-30.6c2.1-1.1 3.1-2.7 3.2-4.2z"/>
							<path id="&lt;Path&gt;" class="s31" d="m369.4 423.4l-52.9-30.5c-4.2-2.5-11-2.5-15.2 0l-52.6 30.6c-4.2 2.4-4.2 6.3 0 8.7l52.9 30.6c4.2 2.4 11 2.4 15.2 0l52.6-30.6c4.2-2.4 4.2-6.4 0-8.8z"/>
							<path id="&lt;Path&gt;" class="s6" d="m369.4 430.7l-52.6 30.5c-4.2 2.5-11 2.5-15.2 0l-52.9-30.5c-1.8-1-2.8-2.3-3.1-3.6-0.4 1.8 0.6 3.7 3.1 5.1l52.9 30.6c4.2 2.4 11 2.4 15.2 0l52.6-30.6c2.5-1.4 3.5-3.3 3.1-5.2-0.3 1.4-1.3 2.6-3.1 3.7z"/>
							<g id="&lt;Group&gt;">
								<path id="&lt;Path&gt;" class="s6" d="m323.9 469.6l-2.5 1.4v-2.9l2.5-1.4z"/>
								<path id="&lt;Path&gt;" class="s6" d="m329.2 466.5l-2.5 1.5v-2.9l2.5-1.5z"/>
								<path id="&lt;Path&gt;" class="s6" d="m334.4 463.5l-2.5 1.4v-2.8l2.5-1.5z"/>
								<path id="&lt;Path&gt;" class="s6" d="m330.1 471.8l-2.5 1.5v-2.9l2.5-1.5z"/>
								<path id="&lt;Path&gt;" class="s6" d="m334.7 469.2l-2.5 1.4v-2.9l2.5-1.4z"/>
								<path id="&lt;Path&gt;" class="s6" d="m351.2 453.8l-2.5 1.4v-2.8l2.5-1.5z"/>
								<path id="&lt;Path&gt;" class="s6" d="m365.6 445.5l-2.5 1.4v-2.9l2.5-1.4z"/>
								<path id="&lt;Path&gt;" class="s6" d="m339.6 460.5l-2.5 1.4v-2.9l2.5-1.4z"/>
							</g>
						</g>
						<path id="&lt;Path&gt;" class="s7" d="m306.1 449.9l-35.6-20.6c-1.5-0.8-1.3-2.3 0.4-3.2l34.8-20.1c1.6-1 4.2-1.1 5.6-0.2l35.6 20.5c1.4 0.9 1.2 2.3-0.4 3.3l-34.8 20c-1.7 1-4.2 1.1-5.6 0.3z"/>
						<path id="&lt;Path&gt;" class="s6" d="m292.1 472.1l-29.4-16.9c-0.7-0.4-1.3-1.5-1.3-2.5v-2.1c0-1 0.6-1.4 1.3-1l29.4 17c0.7 0.4 1.2 1.4 1.2 2.4v2.2c0 0.9-0.5 1.3-1.2 0.9z"/>
						<g id="&lt;Group&gt;">
							<path id="&lt;Path&gt;" class="s32" d="m372.6 405.8v-25.4l-32.1 4.3-24-13.9c-4.2-2.4-11-2.4-15.2 0l-3.7 2.4-52.1 7v25.6q0 0 0 0v0.2h0.1c0 1.5 1 3 3.1 4.2l52.9 30.6c4.2 2.4 11 2.4 15.2 0l52.6-30.6c2.1-1.2 3.1-2.7 3.2-4.3z"/>
							<path id="&lt;Path&gt;" class="s33" d="m369.4 375.8l-52.9-30.5c-4.2-2.4-11-2.4-15.2 0l-52.6 30.6c-4.2 2.4-4.2 6.3 0 8.8l52.9 30.5c4.2 2.4 11 2.4 15.2 0l52.6-30.6c4.2-2.4 4.2-6.3 0-8.8z"/>
							<path id="&lt;Path&gt;" class="s7" d="m344.2 377.7l-30.8-17.8c-2.4-1.4-6.4-1.4-8.9 0l-30.6 17.8c-2.5 1.4-2.5 3.7 0 5.1l30.8 17.8c2.5 1.4 6.4 1.4 8.9 0l30.6-17.8c2.5-1.4 2.5-3.7 0-5.1z"/>
							<path id="&lt;Path&gt;" class="s6" d="m369.4 383.1l-52.6 30.6c-4.2 2.4-11 2.4-15.2 0l-52.9-30.6c-1.8-1-2.8-2.3-3.1-3.6-0.4 1.8 0.6 3.8 3.1 5.2l52.9 30.5c4.2 2.4 11 2.4 15.2 0l52.6-30.6c2.5-1.4 3.5-3.3 3.1-5.1-0.3 1.3-1.3 2.6-3.1 3.6z"/>
							<g id="&lt;Group&gt;">
								<path id="&lt;Path&gt;" class="s6" d="m323.9 422l-2.5 1.4v-2.9l2.5-1.4z"/>
								<path id="&lt;Path&gt;" class="s6" d="m329.2 419l-2.5 1.4v-2.9l2.5-1.4z"/>
								<path id="&lt;Path&gt;" class="s6" d="m334.4 415.9l-2.5 1.5v-2.9l2.5-1.5z"/>
								<path id="&lt;Path&gt;" class="s6" d="m330.1 424.3l-2.5 1.4v-2.9l2.5-1.4z"/>
								<path id="&lt;Path&gt;" class="s6" d="m334.7 421.6l-2.5 1.4v-2.8l2.5-1.5z"/>
								<path id="&lt;Path&gt;" class="s6" d="m351.2 406.2l-2.5 1.5v-2.9l2.5-1.5z"/>
								<path id="&lt;Path&gt;" class="s6" d="m365.6 397.9l-2.5 1.4v-2.8l2.5-1.5z"/>
								<path id="&lt;Path&gt;" class="s6" d="m339.6 412.9l-2.5 1.5v-2.9l2.5-1.5z"/>
							</g>
						</g>
						<g id="&lt;Group&gt;">
							<path id="&lt;Path&gt;" class="s34" d="m372.6 358.2v-25.4l-32.1 4.3-24-13.8c-4.2-2.5-11-2.5-15.2 0l-3.7 2.3-52.1 7v25.6q0 0.1 0 0.1v0.1h0.1c0 1.5 1 3.1 3.1 4.3l52.9 30.5c4.2 2.4 11 2.4 15.2 0l52.6-30.6c2.1-1.2 3.1-2.7 3.2-4.2v-0.1z"/>
							<path id="&lt;Path&gt;" class="s35" d="m369.4 328.3l-52.9-30.6c-4.2-2.4-11-2.4-15.2 0l-52.6 30.6c-4.2 2.4-4.2 6.4 0 8.8l52.9 30.5c4.2 2.5 11 2.5 15.2 0l52.6-30.5c4.2-2.5 4.2-6.4 0-8.8z"/>
							<path id="&lt;Path&gt;" class="s36" d="m369.4 328.3l-52.9-30.6c-4.2-2.4-11-2.4-15.2 0l-52.6 30.6c-4.2 2.4-4.2 6.4 0 8.8l52.9 30.5c4.2 2.5 11 2.5 15.2 0l52.6-30.5c4.2-2.5 4.2-6.4 0-8.8z"/>
							<path id="&lt;Path&gt;" class="s7" d="m349.1 329.7l-35.1-20.2c-2.8-1.6-7.3-1.6-10.1 0l-34.8 20.3c-2.8 1.6-2.8 4.2 0 5.8l35 20.2c2.8 1.7 7.3 1.7 10.1 0l34.9-20.2c2.7-1.6 2.7-4.2 0-5.9z"/>
							<path id="&lt;Path&gt;" class="s6" d="m369.4 335.5l-52.6 30.6c-4.2 2.4-11 2.4-15.2 0l-52.9-30.5c-1.8-1-2.8-2.3-3.1-3.7-0.4 1.9 0.6 3.8 3.1 5.2l52.9 30.5c4.2 2.5 11 2.5 15.2 0l52.6-30.5c2.5-1.5 3.5-3.4 3.1-5.2-0.3 1.3-1.3 2.6-3.1 3.6z"/>
							<g id="&lt;Group&gt;">
								<path id="&lt;Path&gt;" class="s6" d="m323.9 374.4l-2.5 1.5v-2.9l2.5-1.5z"/>
								<path id="&lt;Path&gt;" class="s6" d="m329.2 371.4l-2.5 1.4v-2.9l2.5-1.4z"/>
								<path id="&lt;Path&gt;" class="s6" d="m334.4 368.4l-2.5 1.4v-2.9l2.5-1.4z"/>
								<path id="&lt;Path&gt;" class="s6" d="m330.1 376.7l-2.5 1.4v-2.9l2.5-1.4z"/>
								<path id="&lt;Path&gt;" class="s6" d="m334.7 374l-2.5 1.5v-2.9l2.5-1.5z"/>
								<path id="&lt;Path&gt;" class="s6" d="m351.2 358.7l-2.5 1.4v-2.9l2.5-1.4z"/>
								<path id="&lt;Path&gt;" class="s6" d="m365.6 350.3l-2.5 1.5v-2.9l2.5-1.5z"/>
								<path id="&lt;Path&gt;" class="s6" d="m339.6 365.3l-2.5 1.5v-2.9l2.5-1.5z"/>
							</g>
						</g>
						<g id="&lt;Group&gt;">
							<path id="&lt;Path&gt;" class="s37" d="m372.6 311.5v-25.3l-32.1 4.2-24-13.8c-4.2-2.4-11-2.4-15.2 0l-3.7 2.4-52.1 6.9v25.7q0 0 0 0v0.1h0.1c0 1.6 1 3.1 3.1 4.3l52.9 30.5c4.2 2.4 11 2.4 15.2 0l52.6-30.6c2.1-1.2 3.1-2.7 3.2-4.2z"/>
							<path id="&lt;Path&gt;" class="s38" d="m369.4 281.6l-52.9-30.6c-4.2-2.4-11-2.4-15.2 0l-52.6 30.6c-4.2 2.5-4.2 6.4 0 8.8l52.9 30.6c4.2 2.4 11 2.4 15.2 0l52.6-30.6c4.2-2.5 4.2-6.4 0-8.8z"/>
							<path id="&lt;Path&gt;" class="s7" d="m344.2 283.4l-30.8-17.8c-2.4-1.4-6.4-1.4-8.9 0l-30.6 17.9c-2.5 1.4-2.5 3.7 0 5.1l30.8 17.8c2.5 1.4 6.4 1.4 8.9 0l30.6-17.8c2.5-1.5 2.5-3.8 0-5.2z"/>
							<path id="&lt;Path&gt;" class="s6" d="m369.4 288.8l-52.6 30.6c-4.2 2.5-11 2.5-15.2 0l-52.9-30.5c-1.8-1-2.8-2.3-3.1-3.6-0.4 1.8 0.6 3.7 3.1 5.1l52.9 30.6c4.2 2.4 11 2.4 15.2 0l52.6-30.6c2.5-1.4 3.5-3.4 3.1-5.2-0.3 1.3-1.3 2.6-3.1 3.6z"/>
							<g id="&lt;Group&gt;">
								<path id="&lt;Path&gt;" class="s6" d="m323.9 327.7l-2.5 1.5v-2.9l2.5-1.5z"/>
								<path id="&lt;Path&gt;" class="s6" d="m329.2 324.7l-2.5 1.5v-2.9l2.5-1.5z"/>
								<path id="&lt;Path&gt;" class="s6" d="m334.4 321.7l-2.5 1.4v-2.9l2.5-1.4z"/>
								<path id="&lt;Path&gt;" class="s6" d="m330.1 330l-2.5 1.5v-2.9l2.5-1.5z"/>
								<path id="&lt;Path&gt;" class="s6" d="m334.7 327.4l-2.5 1.4v-2.9l2.5-1.4z"/>
								<path id="&lt;Path&gt;" class="s6" d="m351.2 312l-2.5 1.4v-2.9l2.5-1.4z"/>
								<path id="&lt;Path&gt;" class="s6" d="m365.6 303.7l-2.5 1.4v-2.9l2.5-1.4z"/>
								<path id="&lt;Path&gt;" class="s6" d="m339.6 318.7l-2.5 1.4v-2.9l2.5-1.4z"/>
							</g>
						</g>
						<g id="&lt;Group&gt;">
							<path id="&lt;Path&gt;" class="s39" d="m372.6 264v-25.4l-32.1 4.3-24-13.9c-4.2-2.4-11-2.4-15.2 0l-3.7 2.4-52.1 6.9v25.7q0 0 0 0v0.2h0.1c0 1.5 1 3 3.1 4.2l52.9 30.5c4.2 2.5 11 2.5 15.2 0l52.6-30.5c2.1-1.2 3.1-2.8 3.2-4.3z"/>
							<path id="&lt;Path&gt;" class="s40" d="m369.4 234l-52.9-30.5c-4.2-2.5-11-2.5-15.2 0l-52.6 30.6c-4.2 2.4-4.2 6.3 0 8.8l52.9 30.5c4.2 2.4 11 2.4 15.2 0l52.6-30.6c4.2-2.4 4.2-6.4 0-8.8z"/>
							<path id="&lt;Path&gt;" class="s41" d="m369.4 234l-52.9-30.5c-4.2-2.5-11-2.5-15.2 0l-52.6 30.6c-4.2 2.4-4.2 6.3 0 8.8l52.9 30.5c4.2 2.4 11 2.4 15.2 0l52.6-30.6c4.2-2.4 4.2-6.4 0-8.8z"/>
							<path id="&lt;Compound Path&gt;" fill-rule="evenodd" class="s7" d="m309.2 263.4c-2 0-3.9-0.5-5.4-1.3l-35-20.2c-1.6-0.9-2.4-2.1-2.4-3.4 0-1.4 0.8-2.6 2.4-3.5l34.8-20.2c3-1.7 7.8-1.7 10.7 0l35 20.2c1.6 0.9 2.4 2.1 2.4 3.4 0 1.3-0.8 2.5-2.4 3.4l-34.8 20.3c-1.5 0.8-3.4 1.3-5.3 1.3zm-0.2-48.8c-1.8 0-3.5 0.4-4.8 1.2l-34.9 20.2c-1.1 0.7-1.8 1.6-1.8 2.5 0 0.8 0.7 1.7 1.8 2.4l35.1 20.2c2.6 1.5 6.9 1.5 9.5 0l34.9-20.3c1.1-0.6 1.8-1.5 1.8-2.4 0-0.9-0.7-1.7-1.8-2.4l-35.1-20.2c-1.3-0.8-3-1.2-4.7-1.2z"/>
							<path id="&lt;Path&gt;" class="s6" d="m369.4 241.3l-52.6 30.6c-4.2 2.4-11 2.4-15.2 0l-52.9-30.6c-1.8-1-2.8-2.3-3.1-3.6-0.4 1.8 0.6 3.8 3.1 5.2l52.9 30.5c4.2 2.4 11 2.4 15.2 0l52.6-30.6c2.5-1.4 3.5-3.3 3.1-5.2-0.3 1.4-1.3 2.7-3.1 3.7z"/>
							<g id="&lt;Group&gt;">
								<path id="&lt;Path&gt;" class="s6" d="m323.9 280.2l-2.5 1.4v-2.9l2.5-1.4z"/>
								<path id="&lt;Path&gt;" class="s6" d="m329.2 277.1l-2.5 1.5v-2.9l2.5-1.4z"/>
								<path id="&lt;Path&gt;" class="s6" d="m334.4 274.1l-2.5 1.5v-2.9l2.5-1.5z"/>
								<path id="&lt;Path&gt;" class="s6" d="m330.1 282.5l-2.5 1.4v-2.9l2.5-1.4z"/>
								<path id="&lt;Path&gt;" class="s6" d="m334.7 279.8l-2.5 1.4v-2.9l2.5-1.4z"/>
								<path id="&lt;Path&gt;" class="s6" d="m351.2 264.4l-2.5 1.5v-2.9l2.5-1.5z"/>
								<path id="&lt;Path&gt;" class="s6" d="m365.6 256.1l-2.5 1.4v-2.9l2.5-1.4z"/>
								<path id="&lt;Path&gt;" class="s6" d="m339.6 271.1l-2.5 1.4v-2.8l2.5-1.5z"/>
							</g>
						</g>
					</g>
				</g>
				<g id="&lt;Group&gt;">
					<g id="&lt;Group&gt;">
						<path id="&lt;Compound Path&gt;" fill-rule="evenodd" class="s3" d="m156 414.1c-2.9 0-5.7-0.6-7.9-1.9l-52.9-30.5c-2.2-1.3-3.4-3-3.4-4.8 0-1.9 1.2-3.6 3.4-4.9l52.6-30.6c4.4-2.5 11.4-2.5 15.7 0l52.9 30.6c2.2 1.3 3.4 3 3.4 4.8 0 1.9-1.2 3.6-3.4 4.8l-52.6 30.6c-2.1 1.3-5 1.9-7.8 1.9zm-0.3-73.6c-2.7 0-5.4 0.6-7.4 1.8l-52.6 30.6c-1.9 1.1-2.9 2.5-2.9 4 0 1.4 1 2.9 2.9 3.9l52.9 30.6c4 2.3 10.7 2.3 14.7 0l52.6-30.6c1.9-1.1 2.9-2.5 2.9-4 0-1.5-1-2.9-2.9-4l-52.8-30.5c-2.1-1.2-4.8-1.8-7.4-1.8z"/>
						<g id="&lt;Group&gt;">
							<path id="&lt;Path&gt;" class="s42" d="m219.6 360.1v-25.3l-32.1 4.2-23.9-13.8c-4.3-2.4-11.1-2.4-15.3 0l-3.7 2.4-52 6.9v25.7q0 0 0 0v0.1c0 1.6 1.1 3.1 3.1 4.3l52.9 30.5c4.2 2.4 11 2.4 15.2 0l52.6-30.6c2.1-1.2 3.1-2.7 3.2-4.2z"/>
							<path id="&lt;Path&gt;" class="s43" d="m216.4 330.2l-52.8-30.6c-4.3-2.4-11.1-2.4-15.3 0l-52.6 30.6c-4.2 2.5-4.2 6.4 0 8.8l52.9 30.6c4.2 2.4 11 2.4 15.2 0l52.6-30.6c4.3-2.5 4.3-6.4 0-8.8z"/>
							<path id="&lt;Path&gt;" class="s6" d="m216.4 337.4l-52.6 30.6c-4.2 2.5-11 2.5-15.2 0l-52.9-30.5c-1.8-1-2.8-2.3-3.1-3.6-0.3 1.8 0.7 3.7 3.1 5.1l52.9 30.6c4.2 2.4 11 2.4 15.2 0l52.6-30.6c2.5-1.4 3.5-3.4 3.1-5.2-0.3 1.3-1.3 2.6-3.1 3.6z"/>
							<g id="&lt;Group&gt;">
								<path id="&lt;Path&gt;" class="s6" d="m170.9 376.3l-2.5 1.5v-2.9l2.5-1.5z"/>
								<path id="&lt;Path&gt;" class="s6" d="m176.2 373.3l-2.5 1.5v-2.9l2.5-1.5z"/>
								<path id="&lt;Path&gt;" class="s6" d="m181.4 370.3l-2.5 1.4v-2.9l2.5-1.4z"/>
								<path id="&lt;Path&gt;" class="s6" d="m177.1 378.6l-2.5 1.5v-2.9l2.5-1.5z"/>
								<path id="&lt;Path&gt;" class="s6" d="m181.8 376l-2.6 1.4v-2.9l2.6-1.4z"/>
								<path id="&lt;Path&gt;" class="s6" d="m198.2 360.6l-2.5 1.4v-2.9l2.5-1.4z"/>
								<path id="&lt;Path&gt;" class="s6" d="m212.7 352.3l-2.6 1.4v-2.9l2.6-1.4z"/>
								<path id="&lt;Path&gt;" class="s6" d="m186.7 367.3l-2.5 1.4v-2.9l2.5-1.4z"/>
							</g>
						</g>
						<path id="&lt;Path&gt;" class="s7" d="m153.1 356.7l-35.6-20.6c-1.4-0.8-1.3-2.3 0.4-3.2l34.8-20.1c1.6-1 4.2-1.1 5.6-0.2l35.6 20.5c1.4 0.8 1.3 2.3-0.4 3.3l-34.8 20c-1.6 1-4.2 1.1-5.6 0.3z"/>
						<path id="&lt;Path&gt;" class="s6" d="m139.1 378.9l-29.4-17c-0.7-0.4-1.2-1.4-1.2-2.4v-2.2c0-0.9 0.5-1.3 1.2-0.9l29.4 16.9c0.7 0.4 1.3 1.5 1.3 2.5v2.1c0 1-0.6 1.4-1.3 1z"/>
						<g id="&lt;Group&gt;">
							<path id="&lt;Path&gt;" class="s44" d="m219.6 312.5v-25.3l-32.1 4.3-23.9-13.9c-4.3-2.4-11.1-2.4-15.3 0l-3.7 2.4-52 6.9v25.7q0 0 0 0v0.1c0 1.6 1.1 3.1 3.1 4.3l52.9 30.5c4.2 2.5 11 2.5 15.2 0l52.6-30.6c2.1-1.1 3.1-2.7 3.2-4.2z"/>
							<path id="&lt;Path&gt;" class="s45" d="m216.4 282.6l-52.8-30.5c-4.3-2.5-11.1-2.5-15.3 0l-52.6 30.6c-4.2 2.4-4.2 6.3 0 8.8l52.9 30.5c4.2 2.4 11 2.4 15.2 0l52.6-30.6c4.3-2.4 4.3-6.4 0-8.8z"/>
							<path id="&lt;Path&gt;" class="s7" d="m191.3 284.5l-30.9-17.8c-2.4-1.5-6.4-1.5-8.8 0l-30.7 17.8c-2.5 1.4-2.5 3.7 0 5.1l30.8 17.8c2.5 1.4 6.4 1.4 8.9 0l30.7-17.8c2.4-1.4 2.4-3.7 0-5.1z"/>
							<path id="&lt;Path&gt;" class="s6" d="m216.4 289.9l-52.6 30.6c-4.2 2.4-11 2.4-15.2 0l-52.9-30.6c-1.8-1-2.8-2.3-3.1-3.6-0.3 1.8 0.7 3.7 3.1 5.2l52.9 30.5c4.2 2.4 11 2.4 15.2 0l52.6-30.6c2.5-1.4 3.5-3.3 3.1-5.2-0.3 1.4-1.3 2.6-3.1 3.7z"/>
							<g id="&lt;Group&gt;">
								<path id="&lt;Path&gt;" class="s6" d="m170.9 328.8l-2.5 1.4v-2.9l2.5-1.4z"/>
								<path id="&lt;Path&gt;" class="s6" d="m176.2 325.7l-2.5 1.5v-2.9l2.5-1.5z"/>
								<path id="&lt;Path&gt;" class="s6" d="m181.4 322.7l-2.5 1.5v-2.9l2.5-1.5z"/>
								<path id="&lt;Path&gt;" class="s6" d="m177.1 331l-2.5 1.5v-2.9l2.5-1.4z"/>
								<path id="&lt;Path&gt;" class="s6" d="m181.8 328.4l-2.6 1.4v-2.9l2.6-1.4z"/>
								<path id="&lt;Path&gt;" class="s6" d="m198.2 313l-2.5 1.5v-2.9l2.5-1.5z"/>
								<path id="&lt;Path&gt;" class="s6" d="m212.7 304.7l-2.6 1.4v-2.9l2.6-1.4z"/>
								<path id="&lt;Path&gt;" class="s6" d="m186.7 319.7l-2.5 1.4v-2.9l2.5-1.4z"/>
							</g>
						</g>
						<g id="&lt;Group&gt;">
							<path id="&lt;Path&gt;" class="s46" d="m219.6 265v-25.4l-32.1 4.3-23.9-13.9c-4.3-2.4-11.1-2.4-15.3 0l-3.7 2.4-52 7v25.6q0 0 0 0.1v0.1c0 1.5 1.1 3.1 3.1 4.2l52.9 30.6c4.2 2.4 11 2.4 15.2 0l52.6-30.6c2.1-1.2 3.1-2.7 3.2-4.3z"/>
							<path id="&lt;Path&gt;" class="s47" d="m216.4 235l-52.8-30.5c-4.3-2.4-11.1-2.4-15.3 0l-52.6 30.6c-4.2 2.4-4.2 6.4 0 8.8l52.9 30.5c4.2 2.5 11 2.5 15.2 0l52.6-30.6c4.3-2.4 4.3-6.3 0-8.8z"/>
							<path id="&lt;Path&gt;" class="s48" d="m216.4 235l-52.8-30.5c-4.3-2.4-11.1-2.4-15.3 0l-52.6 30.6c-4.2 2.4-4.2 6.4 0 8.8l52.9 30.5c4.2 2.5 11 2.5 15.2 0l52.6-30.6c4.3-2.4 4.3-6.3 0-8.8z"/>
							<path id="&lt;Path&gt;" class="s7" d="m196.1 236.5l-35.1-20.2c-2.8-1.6-7.3-1.6-10.1 0l-34.8 20.3c-2.8 1.6-2.8 4.2 0 5.8l35 20.2c2.8 1.6 7.3 1.6 10.1 0l34.9-20.2c2.8-1.7 2.8-4.3 0-5.9z"/>
							<path id="&lt;Path&gt;" class="s6" d="m216.4 242.3l-52.6 30.6c-4.2 2.4-11 2.4-15.2 0l-52.9-30.5c-1.8-1.1-2.8-2.4-3.1-3.7-0.3 1.9 0.7 3.8 3.1 5.2l52.9 30.5c4.2 2.5 11 2.5 15.2 0l52.6-30.6c2.5-1.4 3.5-3.3 3.1-5.1-0.3 1.3-1.3 2.6-3.1 3.6z"/>
							<g id="&lt;Group&gt;">
								<path id="&lt;Path&gt;" class="s6" d="m170.9 281.2l-2.5 1.4v-2.9l2.5-1.4z"/>
								<path id="&lt;Path&gt;" class="s6" d="m176.2 278.2l-2.5 1.4v-2.9l2.5-1.4z"/>
								<path id="&lt;Path&gt;" class="s6" d="m181.4 275.1l-2.5 1.5v-2.9l2.5-1.4z"/>
								<path id="&lt;Path&gt;" class="s6" d="m177.1 283.5l-2.5 1.4v-2.9l2.5-1.4z"/>
								<path id="&lt;Path&gt;" class="s6" d="m181.8 280.8l-2.6 1.5v-2.9l2.6-1.5z"/>
								<path id="&lt;Path&gt;" class="s6" d="m198.2 265.4l-2.5 1.5v-2.9l2.5-1.4z"/>
								<path id="&lt;Path&gt;" class="s6" d="m212.7 257.1l-2.6 1.5v-2.9l2.6-1.5z"/>
								<path id="&lt;Path&gt;" class="s6" d="m186.7 272.1l-2.5 1.5v-2.9l2.5-1.5z"/>
							</g>
						</g>
						<g id="&lt;Group&gt;">
							<path id="&lt;Path&gt;" class="s49" d="m219.6 218.3v-25.3l-32.1 4.2-23.9-13.8c-4.3-2.5-11.1-2.5-15.3 0l-3.7 2.3-52 7v25.6q0 0.1 0 0.1v0.1c0 1.5 1.1 3.1 3.1 4.3l52.9 30.5c4.2 2.4 11 2.4 15.2 0l52.6-30.6c2.1-1.2 3.1-2.7 3.2-4.2z"/>
							<path id="&lt;Path&gt;" class="s50" d="m216.4 188.4l-52.8-30.6c-4.3-2.4-11.1-2.4-15.3 0l-52.6 30.6c-4.2 2.4-4.2 6.4 0 8.8l52.9 30.5c4.2 2.5 11 2.5 15.2 0l52.6-30.5c4.3-2.5 4.3-6.4 0-8.8z"/>
							<path id="&lt;Path&gt;" class="s7" d="m191.3 190.2l-30.9-17.8c-2.4-1.4-6.4-1.4-8.8 0l-30.7 17.8c-2.5 1.5-2.5 3.8 0 5.2l30.8 17.8c2.5 1.4 6.4 1.4 8.9 0l30.7-17.9c2.4-1.4 2.4-3.7 0-5.1z"/>
							<path id="&lt;Path&gt;" class="s6" d="m216.4 195.6l-52.6 30.6c-4.2 2.4-11 2.4-15.2 0l-52.9-30.5c-1.8-1-2.8-2.3-3.1-3.7-0.3 1.9 0.7 3.8 3.1 5.2l52.9 30.5c4.2 2.5 11 2.5 15.2 0l52.6-30.5c2.5-1.5 3.5-3.4 3.1-5.2-0.3 1.3-1.3 2.6-3.1 3.6z"/>
							<g id="&lt;Group&gt;">
								<path id="&lt;Path&gt;" class="s6" d="m170.9 234.5l-2.5 1.5v-2.9l2.5-1.5z"/>
								<path id="&lt;Path&gt;" class="s6" d="m176.2 231.5l-2.5 1.4v-2.9l2.5-1.4z"/>
								<path id="&lt;Path&gt;" class="s6" d="m181.4 228.5l-2.5 1.4v-2.9l2.5-1.4z"/>
								<path id="&lt;Path&gt;" class="s6" d="m177.1 236.8l-2.5 1.4v-2.8l2.5-1.5z"/>
								<path id="&lt;Path&gt;" class="s6" d="m181.8 234.1l-2.6 1.5v-2.9l2.6-1.5z"/>
								<path id="&lt;Path&gt;" class="s6" d="m198.2 218.8l-2.5 1.4v-2.9l2.5-1.4z"/>
								<path id="&lt;Path&gt;" class="s6" d="m212.7 210.4l-2.6 1.5v-2.9l2.6-1.5z"/>
								<path id="&lt;Path&gt;" class="s6" d="m186.7 225.4l-2.5 1.5v-2.9l2.5-1.4z"/>
							</g>
						</g>
						<g id="&lt;Group&gt;">
							<path id="&lt;Path&gt;" class="s51" d="m219.6 170.7v-25.3l-32.1 4.3-23.9-13.9c-4.3-2.4-11.1-2.4-15.3 0l-3.7 2.4-52 6.9v25.7q0 0 0 0v0.1c0 1.6 1.1 3.1 3.1 4.3l52.9 30.5c4.2 2.5 11 2.5 15.2 0l52.6-30.6c2.1-1.1 3.1-2.7 3.2-4.2z"/>
							<path id="&lt;Path&gt;" class="s52" d="m216.4 140.8l-52.8-30.5c-4.3-2.5-11.1-2.5-15.3 0l-52.6 30.5c-4.2 2.5-4.2 6.4 0 8.8l52.9 30.6c4.2 2.4 11 2.4 15.2 0l52.6-30.6c4.3-2.4 4.3-6.4 0-8.8z"/>
							<path id="&lt;Path&gt;" class="s53" d="m216.4 140.8l-52.8-30.5c-4.3-2.5-11.1-2.5-15.3 0l-52.6 30.5c-4.2 2.5-4.2 6.4 0 8.8l52.9 30.6c4.2 2.4 11 2.4 15.2 0l52.6-30.6c4.3-2.4 4.3-6.4 0-8.8z"/>
							<path id="&lt;Path&gt;" class="s6" d="m216.4 148.1l-52.6 30.5c-4.2 2.5-11 2.5-15.2 0l-52.9-30.5c-1.8-1-2.8-2.3-3.1-3.6-0.3 1.8 0.7 3.7 3.1 5.1l52.9 30.6c4.2 2.4 11 2.4 15.2 0l52.6-30.6c2.5-1.4 3.5-3.3 3.1-5.2-0.3 1.3-1.3 2.6-3.1 3.7z"/>
							<g id="&lt;Group&gt;">
								<path id="&lt;Path&gt;" class="s6" d="m170.9 186.9l-2.5 1.5v-2.9l2.5-1.4z"/>
								<path id="&lt;Path&gt;" class="s6" d="m176.2 183.9l-2.5 1.5v-2.9l2.5-1.5z"/>
								<path id="&lt;Path&gt;" class="s6" d="m181.4 180.9l-2.5 1.4v-2.8l2.5-1.5z"/>
								<path id="&lt;Path&gt;" class="s6" d="m177.1 189.2l-2.5 1.5v-2.9l2.5-1.5z"/>
								<path id="&lt;Path&gt;" class="s6" d="m181.8 186.6l-2.6 1.4v-2.9l2.6-1.4z"/>
								<path id="&lt;Path&gt;" class="s6" d="m198.2 171.2l-2.5 1.4v-2.8l2.5-1.5z"/>
								<path id="&lt;Path&gt;" class="s6" d="m212.7 162.9l-2.6 1.4v-2.9l2.6-1.4z"/>
								<path id="&lt;Path&gt;" class="s6" d="m186.7 177.9l-2.5 1.4v-2.9l2.5-1.4z"/>
							</g>
						</g>
					</g>
				</g>
			</g>
		</g>
		<path id="&lt;Path&gt;" class="s54" d="m48.4 410c0 4.4-3.5 8-7.9 8-4.3 0.1-7.9-3.4-8-7.8 0-4.4 3.5-8 7.9-8 4.3-0.1 7.9 3.4 8 7.8z"/>
		<path id="&lt;Path&gt;" class="s54" d="m43.6 358.7c0.1 2-1.6 3.7-3.7 3.8-2 0-3.7-1.7-3.8-3.7 0-2.1 1.7-3.8 3.8-3.8 2-0.1 3.7 1.6 3.7 3.7z"/>
		<path id="&lt;Path&gt;" class="s54" d="m271.3 456.2c0 2.6-2 4.6-4.5 4.7-2.6 0-4.6-2-4.7-4.6 0-2.5 2-4.6 4.6-4.6 2.5 0 4.6 2 4.6 4.5z"/>
		<path id="&lt;Path&gt;" class="s6" d="m196.1 142.3l-35.1-20.2c-2.8-1.7-7.3-1.7-10.1 0l-34.8 20.2c-2.8 1.6-2.8 4.2 0 5.9l35 20.2c2.8 1.6 7.3 1.6 10.1 0l34.9-20.3c2.8-1.6 2.8-4.2 0-5.8z"/>
		<path id="&lt;Path&gt;" class="s55" d="m363.3 303.9l154.4 89.3 1.5-2.6-153.8-88.9z"/>
		<path id="&lt;Path&gt;" class="s56" d="m114 62.1v126.8h1.1v-124.6z"/>
		<path id="&lt;Path&gt;" class="s57" d="m155.5 86.3v126.9h1.1v-124.7z"/>
		<path id="&lt;Path&gt;" class="s58" d="m197 63.6v126.8h1.2v-124.6z"/>
		<g id="&lt;Group&gt;">
			<path id="&lt;Path&gt;" class="s59" d="m198.2 66.8v-4.8l-21.2 2.9-16-9.2c-2.8-1.6-7.3-1.6-10.1 0l-2.5 1.6-34.5 4.6v4.9q0 0 0 0.1c0.1 1.1 0.8 2.1 2.1 2.9l35.1 20.2c2.8 1.6 7.3 1.6 10.1 0l34.9-20.3c1.4-0.8 2.1-1.8 2.1-2.8z"/>
			<path id="&lt;Path&gt;" class="s60" d="m196.1 59l-35.1-20.3c-2.8-1.6-7.3-1.6-10.1 0l-34.9 20.3c-2.8 1.6-2.8 4.3 0 5.9l35.1 20.2c2.8 1.6 7.3 1.6 10.1 0l34.9-20.3c2.8-1.6 2.8-4.2 0-5.8z"/>
			<path id="&lt;Path&gt;" class="s6" d="m196.1 63.8l-34.9 20.3c-2.8 1.6-7.3 1.6-10.1 0l-35.1-20.3c-1.1-0.6-1.8-1.5-2-2.4-0.3 1.3 0.4 2.5 2 3.5l35.1 20.2c2.8 1.6 7.3 1.6 10.1 0l34.9-20.3c1.6-0.9 2.3-2.2 2.1-3.4-0.2 0.9-0.9 1.7-2.1 2.4z"/>
		</g>
		<g id="&lt;Group&gt;">
			<path id="&lt;Path&gt;" class="s6" d="m525.2 110.7c0.1 4.3-3.4 7.9-7.8 8-4.4 0-8-3.5-8-7.9-0.1-4.3 3.4-7.9 7.8-8 4.4 0 8 3.5 8 7.9z"/>
			<path id="&lt;Path&gt;" class="s6" d="m542.7 116.9c0 2.8-2.2 5.1-5 5.1-2.8 0-5.1-2.2-5.1-5-0.1-2.8 2.2-5.1 5-5.2 2.8 0 5.1 2.3 5.1 5.1z"/>
			<path id="&lt;Path&gt;" class="s6" d="m550.1 104.2c0 2-1.6 3.6-3.5 3.6-2 0-3.6-1.5-3.7-3.5 0-2 1.6-3.6 3.6-3.6 2-0.1 3.6 1.5 3.6 3.5z"/>
			<path id="&lt;Path&gt;" class="s6" d="m545.2 92.8c0 1.2-1 2.2-2.2 2.3-1.3 0-2.3-1-2.3-2.3 0-1.2 1-2.3 2.2-2.3 1.3 0 2.3 1 2.3 2.3z"/>
			<path id="&lt;Path&gt;" class="s54" d="m520.5 59.3c0 2.1-1.6 3.8-3.7 3.8-2.1 0-3.8-1.6-3.8-3.7 0-2.1 1.6-3.8 3.7-3.8 2.1 0 3.8 1.6 3.8 3.7z"/>
			<path id="&lt;Path&gt;" class="s54" d="m725.2 176.1c0 2.1-1.6 3.8-3.7 3.8-2.1 0.1-3.8-1.6-3.8-3.7 0-2.1 1.6-3.8 3.7-3.8 2.1 0 3.8 1.7 3.8 3.7z"/>
			<path id="&lt;Path&gt;" class="s54" d="m736.5 199.8c0.1 2.7-2.1 5-4.9 5-2.7 0-5-2.2-5-4.9 0-2.8 2.2-5 4.9-5 2.8-0.1 5 2.1 5 4.9z"/>
			<path id="&lt;Path&gt;" class="s54" d="m705.9 200.1c0 1.9-1.6 3.5-3.5 3.6-1.9 0-3.5-1.6-3.6-3.5 0-2 1.6-3.5 3.5-3.6 2 0 3.5 1.6 3.6 3.5z"/>
			<path id="&lt;Path&gt;" class="s54" d="m686.2 188.4c0 0.9-0.7 1.6-1.5 1.6-0.9 0-1.5-0.7-1.6-1.5 0-0.9 0.7-1.5 1.5-1.5 0.9-0.1 1.5 0.6 1.6 1.4z"/>
			<path id="&lt;Path&gt;" class="s54" d="m682.1 155.6c0 1.3-1 2.4-2.3 2.4-1.3 0-2.4-1-2.4-2.3 0-1.3 1-2.4 2.3-2.4 1.3 0 2.4 1 2.4 2.3z"/>
			<path id="&lt;Path&gt;" class="s54" d="m432.4 48c0 3.1-2.5 5.6-5.6 5.6-3.1 0.1-5.6-2.4-5.7-5.5 0-3.1 2.5-5.7 5.6-5.7 3.1 0 5.6 2.4 5.7 5.6z"/>
		</g>
	</g>
</svg>